<svg width="22" height="22" viewBox="0 0 22 22" fill="none" xmlns="http://www.w3.org/2000/svg">
<path fill-rule="evenodd" clip-rule="evenodd" d="M11.0001 21.8332C5.02008 21.8332 0.166748 16.969 0.166748 10.9998C0.166748 5.01984 5.02008 0.166504 11.0001 0.166504C16.9692 0.166504 21.8334 5.01984 21.8334 10.9998C21.8334 16.969 16.9692 21.8332 11.0001 21.8332ZM15.3334 8.85484C15.0084 8.54067 14.4992 8.54067 14.1851 8.86567L11.0001 12.0615L7.81508 8.86567C7.50092 8.54067 6.98092 8.54067 6.66675 8.85484C6.34175 9.17984 6.34175 9.689 6.66675 10.0032L10.4259 13.784C10.5776 13.9357 10.7834 14.0223 11.0001 14.0223C11.2167 14.0223 11.4226 13.9357 11.5742 13.784L15.3334 10.0032C15.4959 9.8515 15.5717 9.64567 15.5717 9.43984C15.5717 9.22317 15.4959 9.01734 15.3334 8.85484Z" fill="#1D1D1D"/>
</svg>
